<svg width="176" height="30" fill="none" xmlns="http://www.w3.org/2000/svg"><path d="M6.31 28.75C3.904 28.237 1.8 27.508 0 26.563l3.105-5.021c.565 1.755 1.74 3.051 3.528 3.888 1.788.837 4.254 1.255 7.399 1.255 3.144 0 5.61-.357 7.237-1.073 1.627-.715 2.44-1.762 2.44-3.138 0-.675-.195-1.276-.585-1.802-.39-.527-.968-1.032-1.734-1.519-.766-.486-1.955-1.066-3.569-1.74l-2.338-.892c-2.043-.89-3.65-1.693-4.819-2.41-1.17-.714-2.056-1.477-2.661-2.288-.605-.81-.907-1.74-.907-2.793 0-1.647.625-3.159 1.875-4.536 1.25-1.377 3.139-2.47 5.665-3.28C17.163.405 20.2 0 23.75 0c2.42 0 4.718.196 6.895.587 2.177.392 4.045.911 5.605 1.559l-3.065 5.061c-.994-1.646-2.285-2.786-3.871-3.422-1.586-.634-3.616-.951-6.088-.951-2.473 0-4.415.303-5.745.91-1.331.608-1.997 1.52-1.997 2.734 0 .728.262 1.39.787 1.984.524.595 1.236 1.1 2.136 1.52.9.418 2.426 1.072 4.577 1.963 2.312.918 4.12 1.796 5.423 2.633 1.304.837 2.258 1.694 2.863 2.57.605.878.907 1.856.907 2.937 0 1.916-.733 3.576-2.197 4.98-1.465 1.404-3.589 2.498-6.37 3.28-2.783.783-6.083 1.174-9.9 1.174-2.526 0-4.993-.256-7.398-.769ZM32.447 26.119c.86-1.512 1.694-3.415 2.5-5.71l4.072-11.297c.78-2.105 1.31-3.949 1.592-5.527.283-1.58.168-2.544-.343-2.896h15c3.547 0 6.517.278 8.91.83 2.392.554 4.18 1.37 5.363 2.45 1.183 1.08 1.774 2.403 1.774 3.968 0 2.052-.887 3.908-2.661 5.568-1.774 1.66-3.992 2.963-6.653 3.908-2.661.945-5.283 1.417-7.862 1.417-1.775 0-3.28-.168-4.517-.505-1.237-.338-2.07-.763-2.5-1.276 2.688-.027 5.128-.412 7.319-1.154 2.19-.742 4.038-1.808 5.544-3.2 1.505-1.39 2.258-3.016 2.258-4.878 0-1.026-.31-1.876-.928-2.551-.62-.674-1.552-1.181-2.803-1.52-1.25-.336-2.87-.506-4.858-.506h-3.75l-6.25 17.17c-.753 2.105-1.277 3.948-1.573 5.527-.296 1.58-.188 2.544.322 2.895H30.065c.726-.296 1.52-1.2 2.379-2.713h.003ZM75.028 28.002c-2.325-1.012-3.858-2.45-4.597-4.313-.74-1.862-.652-4.076.262-6.64l2.863-7.937c.807-2.24 1.331-4.124 1.573-5.649.242-1.525.147-2.45-.282-2.774h12.298c-.7.324-1.472 1.23-2.318 2.714-.847 1.485-1.7 3.388-2.56 5.709l-3.63 9.921c-.914 2.51-.846 4.42.202 5.73 1.048 1.31 3.01 1.964 5.887 1.964 2.526 0 4.57-.533 6.128-1.6 1.559-1.065 2.755-2.759 3.59-5.082l3.991-10.933c.887-2.403 1.438-4.32 1.653-5.75.215-1.431.108-2.322-.322-2.673h12.258c-.673.324-1.431 1.23-2.278 2.714-.846 1.485-1.7 3.388-2.56 5.709l-3.105 8.544c-.941 2.619-2.312 4.805-4.113 6.56-1.8 1.755-4.019 3.077-6.653 3.968-2.635.891-5.685 1.337-9.153 1.337-3.763 0-6.808-.506-9.132-1.519h-.002ZM138.444 28.405c-3.71-.742-7.029-2.153-9.959-4.232-2.93-2.077-5.591-5.074-7.983-8.99 2.957 0 5.497-.336 7.62-1.011 2.123-.675 3.79-1.6 5-2.774 1.21-1.175 1.815-2.464 1.815-3.867 0-.891-.269-1.653-.807-2.288-.538-.635-1.385-1.127-2.54-1.479-1.156-.35-2.648-.526-4.476-.526h-4.193l-6.25 17.17c-.807 2.267-1.317 4.157-1.532 5.669-.216 1.512-.121 2.43.282 2.754h-12.297c.619-.297 1.378-1.208 2.278-2.734.901-1.525 1.755-3.422 2.56-5.689l4.113-11.298c.753-2.078 1.244-3.894 1.472-5.446.228-1.553.141-2.544-.262-2.976h15.161c3.441 0 6.316.283 8.628.85 2.312.567 4.053 1.356 5.222 2.369 1.17 1.012 1.754 2.18 1.754 3.502 0 1.404-.551 2.7-1.653 3.888-1.102 1.188-2.52 2.194-4.253 3.017-1.734.824-3.636 1.478-5.706 1.964 1.694 2.619 3.642 4.704 5.846 6.256a20.84 20.84 0 0 0 7.157 3.26c2.566.622 4.552.931 7.618.931 3.306 0 5.859-.37 7.661-1.113 1.8-.742 2.701-1.815 2.701-3.22 0-.566-.195-1.12-.584-1.66-.39-.539-1.129-1.126-2.218-1.761-1.089-.634-2.669-1.37-4.738-2.207-2.366-.89-4.208-1.754-5.524-2.592-1.317-.836-2.245-1.666-2.782-2.49-.538-.823-.807-1.694-.807-2.612 0-1.754.692-3.326 2.077-4.717 1.384-1.39 3.332-2.464 5.846-3.22C157.204.379 160.101 0 163.38 0c2.445 0 4.778.196 6.996.587 2.218.392 4.078.911 5.584 1.559l-3.105 5.061c-.833-1.458-2.015-2.55-3.548-3.28-1.532-.728-3.548-1.092-6.048-1.092-1.828 0-3.341.141-4.536.425-1.197.283-2.091.695-2.681 1.235-.592.54-.887 1.202-.887 1.984 0 .595.228 1.141.686 1.64.456.501 1.236 1.067 2.338 1.702 1.102.634 2.864 1.478 5.283 2.53 2.15.919 3.844 1.796 5.08 2.632 1.236.838 2.104 1.68 2.601 2.532.497.85.746 1.761.746 2.733 0 1.998-.82 3.684-2.46 5.061-1.639 1.377-3.971 2.423-6.996 3.138-3.024.715-6.673 1.073-10.947 1.073-5.538 0-9.331-.371-13.04-1.113l-.002-.002Z" fill="#000A3C"/></svg>